<?xml version="1.0" encoding="UTF-8" standalone="no"?>
<svg
   xmlns:dc="http://purl.org/dc/elements/1.1/"
   xmlns:cc="http://creativecommons.org/ns#"
   xmlns:rdf="http://www.w3.org/1999/02/22-rdf-syntax-ns#"
   xmlns:svg="http://www.w3.org/2000/svg"
   xmlns="http://www.w3.org/2000/svg"
   xmlns:sodipodi="http://sodipodi.sourceforge.net/DTD/sodipodi-0.dtd"
   xmlns:inkscape="http://www.inkscape.org/namespaces/inkscape"
   viewBox="0 0 16 16"
   width="16px"
   height="16px"
   id="svg2"
   version="1.1"
   inkscape:version="0.91 r13725"
   sodipodi:docname="icon-linkedin.svg">
  <metadata
     id="metadata12">
    <rdf:RDF>
      <cc:Work
         rdf:about="">
        <dc:format>image/svg+xml</dc:format>
        <dc:type
           rdf:resource="http://purl.org/dc/dcmitype/StillImage" />
      </cc:Work>
    </rdf:RDF>
  </metadata>
  <defs
     id="defs10" />
  <sodipodi:namedview
     pagecolor="#ffffff"
     bordercolor="#666666"
     borderopacity="1"
     objecttolerance="10"
     gridtolerance="10"
     guidetolerance="10"
     inkscape:pageopacity="0"
     inkscape:pageshadow="2"
     inkscape:window-width="1920"
     inkscape:window-height="1022"
     id="namedview8"
     showgrid="false"
     inkscape:zoom="20.85965"
     inkscape:cx="14.397845"
     inkscape:cy="8.6190622"
     inkscape:window-x="0"
     inkscape:window-y="23"
     inkscape:window-maximized="1"
     inkscape:current-layer="svg2" />
  <path
     d="m 3.586108,5.303805 0,10.696195 -3.07321,0 0,-10.696195 z m 4.225665,0 0,1.528028 C 9.025692,5.979957 9.740213,5.475708 11.269136,5.345825 17.177384,4.841576 15.878952,12.206671 15.878952,16 l -3.073211,0 c 0,-1.589149 0.326529,-5.974589 -0.668423,-7.08623 C 11.080901,7.725729 9.632651,8.455362 8.864348,9.547902 7.896287,10.923127 8.195925,14.284789 8.195925,16 l -3.073211,0 0,-10.696195 z"
     id="path4"
     inkscape:connector-curvature="0"
     style="fill:#828282" />
  <path
     d="M 4.446194,2.138016 A 2.2230971,2.1380162 0 0 1 2.223097,4.276033 2.2230971,2.1380162 0 0 1 0,2.138016 2.2230971,2.1380162 0 0 1 2.223097,0 2.2230971,2.1380162 0 0 1 4.446194,2.138016 Z"
     id="path6"
     inkscape:connector-curvature="0"
     style="fill:#828282" />
</svg>
